<mxfile host="app.diagrams.net" modified="2023-07-18T09:40:11.347Z" agent="Mozilla/5.0 (Windows NT 10.0; Win64; x64) AppleWebKit/537.36 (KHTML, like Gecko) Chrome/114.0.0.0 Safari/537.36" etag="WWmyfULoykSU-o3VpyEN" version="21.6.2" type="github">
  <diagram id="R2lEEEUBdFMjLlhIrx00" name="Page-1">
    <mxGraphModel dx="1434" dy="764" grid="1" gridSize="10" guides="1" tooltips="1" connect="1" arrows="1" fold="1" page="1" pageScale="1" pageWidth="850" pageHeight="1100" math="0" shadow="0" extFonts="Permanent Marker^https://fonts.googleapis.com/css?family=Permanent+Marker">
      <root>
        <mxCell id="0" />
        <mxCell id="1" parent="0" />
        <mxCell id="C-vyLk0tnHw3VtMMgP7b-1" value="" style="edgeStyle=entityRelationEdgeStyle;endArrow=ERzeroToMany;startArrow=ERone;endFill=1;startFill=0;" parent="1" source="C-vyLk0tnHw3VtMMgP7b-24" target="C-vyLk0tnHw3VtMMgP7b-6" edge="1">
          <mxGeometry width="100" height="100" relative="1" as="geometry">
            <mxPoint x="340" y="720" as="sourcePoint" />
            <mxPoint x="440" y="620" as="targetPoint" />
          </mxGeometry>
        </mxCell>
        <mxCell id="C-vyLk0tnHw3VtMMgP7b-12" value="" style="edgeStyle=entityRelationEdgeStyle;endArrow=ERzeroToMany;startArrow=ERone;endFill=1;startFill=0;" parent="1" source="C-vyLk0tnHw3VtMMgP7b-3" target="C-vyLk0tnHw3VtMMgP7b-17" edge="1">
          <mxGeometry width="100" height="100" relative="1" as="geometry">
            <mxPoint x="400" y="180" as="sourcePoint" />
            <mxPoint x="460" y="205" as="targetPoint" />
          </mxGeometry>
        </mxCell>
        <mxCell id="C-vyLk0tnHw3VtMMgP7b-2" value="Orders" style="shape=table;startSize=30;container=1;collapsible=1;childLayout=tableLayout;fixedRows=1;rowLines=0;fontStyle=1;align=center;resizeLast=1;" parent="1" vertex="1">
          <mxGeometry x="450" y="120" width="250" height="130" as="geometry" />
        </mxCell>
        <mxCell id="C-vyLk0tnHw3VtMMgP7b-3" value="" style="shape=partialRectangle;collapsible=0;dropTarget=0;pointerEvents=0;fillColor=none;points=[[0,0.5],[1,0.5]];portConstraint=eastwest;top=0;left=0;right=0;bottom=1;" parent="C-vyLk0tnHw3VtMMgP7b-2" vertex="1">
          <mxGeometry y="30" width="250" height="30" as="geometry" />
        </mxCell>
        <mxCell id="C-vyLk0tnHw3VtMMgP7b-4" value="PK" style="shape=partialRectangle;overflow=hidden;connectable=0;fillColor=none;top=0;left=0;bottom=0;right=0;fontStyle=1;" parent="C-vyLk0tnHw3VtMMgP7b-3" vertex="1">
          <mxGeometry width="30" height="30" as="geometry" />
        </mxCell>
        <mxCell id="C-vyLk0tnHw3VtMMgP7b-5" value="order_id int NOT NULL " style="shape=partialRectangle;overflow=hidden;connectable=0;fillColor=none;top=0;left=0;bottom=0;right=0;align=left;spacingLeft=6;fontStyle=5;" parent="C-vyLk0tnHw3VtMMgP7b-3" vertex="1">
          <mxGeometry x="30" width="220" height="30" as="geometry" />
        </mxCell>
        <mxCell id="C-vyLk0tnHw3VtMMgP7b-6" value="" style="shape=partialRectangle;collapsible=0;dropTarget=0;pointerEvents=0;fillColor=none;points=[[0,0.5],[1,0.5]];portConstraint=eastwest;top=0;left=0;right=0;bottom=0;" parent="C-vyLk0tnHw3VtMMgP7b-2" vertex="1">
          <mxGeometry y="60" width="250" height="30" as="geometry" />
        </mxCell>
        <mxCell id="C-vyLk0tnHw3VtMMgP7b-7" value="FK1" style="shape=partialRectangle;overflow=hidden;connectable=0;fillColor=none;top=0;left=0;bottom=0;right=0;" parent="C-vyLk0tnHw3VtMMgP7b-6" vertex="1">
          <mxGeometry width="30" height="30" as="geometry" />
        </mxCell>
        <mxCell id="C-vyLk0tnHw3VtMMgP7b-8" value="customer_id int NOT NULL" style="shape=partialRectangle;overflow=hidden;connectable=0;fillColor=none;top=0;left=0;bottom=0;right=0;align=left;spacingLeft=6;" parent="C-vyLk0tnHw3VtMMgP7b-6" vertex="1">
          <mxGeometry x="30" width="220" height="30" as="geometry" />
        </mxCell>
        <mxCell id="C-vyLk0tnHw3VtMMgP7b-9" value="" style="shape=partialRectangle;collapsible=0;dropTarget=0;pointerEvents=0;fillColor=none;points=[[0,0.5],[1,0.5]];portConstraint=eastwest;top=0;left=0;right=0;bottom=0;" parent="C-vyLk0tnHw3VtMMgP7b-2" vertex="1">
          <mxGeometry y="90" width="250" height="30" as="geometry" />
        </mxCell>
        <mxCell id="C-vyLk0tnHw3VtMMgP7b-10" value="" style="shape=partialRectangle;overflow=hidden;connectable=0;fillColor=none;top=0;left=0;bottom=0;right=0;" parent="C-vyLk0tnHw3VtMMgP7b-9" vertex="1">
          <mxGeometry width="30" height="30" as="geometry" />
        </mxCell>
        <mxCell id="C-vyLk0tnHw3VtMMgP7b-11" value="order_date date NOT NULL" style="shape=partialRectangle;overflow=hidden;connectable=0;fillColor=none;top=0;left=0;bottom=0;right=0;align=left;spacingLeft=6;" parent="C-vyLk0tnHw3VtMMgP7b-9" vertex="1">
          <mxGeometry x="30" width="220" height="30" as="geometry" />
        </mxCell>
        <mxCell id="C-vyLk0tnHw3VtMMgP7b-13" value="Shipments" style="shape=table;startSize=30;container=1;collapsible=1;childLayout=tableLayout;fixedRows=1;rowLines=0;fontStyle=1;align=center;resizeLast=1;" parent="1" vertex="1">
          <mxGeometry x="450" y="280" width="250" height="130" as="geometry" />
        </mxCell>
        <mxCell id="C-vyLk0tnHw3VtMMgP7b-14" value="" style="shape=partialRectangle;collapsible=0;dropTarget=0;pointerEvents=0;fillColor=none;points=[[0,0.5],[1,0.5]];portConstraint=eastwest;top=0;left=0;right=0;bottom=1;" parent="C-vyLk0tnHw3VtMMgP7b-13" vertex="1">
          <mxGeometry y="30" width="250" height="30" as="geometry" />
        </mxCell>
        <mxCell id="C-vyLk0tnHw3VtMMgP7b-15" value="PK" style="shape=partialRectangle;overflow=hidden;connectable=0;fillColor=none;top=0;left=0;bottom=0;right=0;fontStyle=1;" parent="C-vyLk0tnHw3VtMMgP7b-14" vertex="1">
          <mxGeometry width="30" height="30" as="geometry" />
        </mxCell>
        <mxCell id="C-vyLk0tnHw3VtMMgP7b-16" value="shipment_id int NOT NULL " style="shape=partialRectangle;overflow=hidden;connectable=0;fillColor=none;top=0;left=0;bottom=0;right=0;align=left;spacingLeft=6;fontStyle=5;" parent="C-vyLk0tnHw3VtMMgP7b-14" vertex="1">
          <mxGeometry x="30" width="220" height="30" as="geometry" />
        </mxCell>
        <mxCell id="C-vyLk0tnHw3VtMMgP7b-17" value="" style="shape=partialRectangle;collapsible=0;dropTarget=0;pointerEvents=0;fillColor=none;points=[[0,0.5],[1,0.5]];portConstraint=eastwest;top=0;left=0;right=0;bottom=0;" parent="C-vyLk0tnHw3VtMMgP7b-13" vertex="1">
          <mxGeometry y="60" width="250" height="30" as="geometry" />
        </mxCell>
        <mxCell id="C-vyLk0tnHw3VtMMgP7b-18" value="FK1" style="shape=partialRectangle;overflow=hidden;connectable=0;fillColor=none;top=0;left=0;bottom=0;right=0;" parent="C-vyLk0tnHw3VtMMgP7b-17" vertex="1">
          <mxGeometry width="30" height="30" as="geometry" />
        </mxCell>
        <mxCell id="C-vyLk0tnHw3VtMMgP7b-19" value="order_id int NOT NULL" style="shape=partialRectangle;overflow=hidden;connectable=0;fillColor=none;top=0;left=0;bottom=0;right=0;align=left;spacingLeft=6;" parent="C-vyLk0tnHw3VtMMgP7b-17" vertex="1">
          <mxGeometry x="30" width="220" height="30" as="geometry" />
        </mxCell>
        <mxCell id="C-vyLk0tnHw3VtMMgP7b-20" value="" style="shape=partialRectangle;collapsible=0;dropTarget=0;pointerEvents=0;fillColor=none;points=[[0,0.5],[1,0.5]];portConstraint=eastwest;top=0;left=0;right=0;bottom=0;" parent="C-vyLk0tnHw3VtMMgP7b-13" vertex="1">
          <mxGeometry y="90" width="250" height="30" as="geometry" />
        </mxCell>
        <mxCell id="C-vyLk0tnHw3VtMMgP7b-21" value="" style="shape=partialRectangle;overflow=hidden;connectable=0;fillColor=none;top=0;left=0;bottom=0;right=0;" parent="C-vyLk0tnHw3VtMMgP7b-20" vertex="1">
          <mxGeometry width="30" height="30" as="geometry" />
        </mxCell>
        <mxCell id="C-vyLk0tnHw3VtMMgP7b-22" value="shipment_date date NOT NULL" style="shape=partialRectangle;overflow=hidden;connectable=0;fillColor=none;top=0;left=0;bottom=0;right=0;align=left;spacingLeft=6;" parent="C-vyLk0tnHw3VtMMgP7b-20" vertex="1">
          <mxGeometry x="30" width="220" height="30" as="geometry" />
        </mxCell>
        <mxCell id="C-vyLk0tnHw3VtMMgP7b-23" value="Customers" style="shape=table;startSize=30;container=1;collapsible=1;childLayout=tableLayout;fixedRows=1;rowLines=0;fontStyle=1;align=center;resizeLast=1;" parent="1" vertex="1">
          <mxGeometry x="120" y="120" width="250" height="100" as="geometry" />
        </mxCell>
        <mxCell id="C-vyLk0tnHw3VtMMgP7b-24" value="" style="shape=partialRectangle;collapsible=0;dropTarget=0;pointerEvents=0;fillColor=none;points=[[0,0.5],[1,0.5]];portConstraint=eastwest;top=0;left=0;right=0;bottom=1;" parent="C-vyLk0tnHw3VtMMgP7b-23" vertex="1">
          <mxGeometry y="30" width="250" height="30" as="geometry" />
        </mxCell>
        <mxCell id="C-vyLk0tnHw3VtMMgP7b-25" value="PK" style="shape=partialRectangle;overflow=hidden;connectable=0;fillColor=none;top=0;left=0;bottom=0;right=0;fontStyle=1;" parent="C-vyLk0tnHw3VtMMgP7b-24" vertex="1">
          <mxGeometry width="30" height="30" as="geometry" />
        </mxCell>
        <mxCell id="C-vyLk0tnHw3VtMMgP7b-26" value="customer_id int NOT NULL " style="shape=partialRectangle;overflow=hidden;connectable=0;fillColor=none;top=0;left=0;bottom=0;right=0;align=left;spacingLeft=6;fontStyle=5;" parent="C-vyLk0tnHw3VtMMgP7b-24" vertex="1">
          <mxGeometry x="30" width="220" height="30" as="geometry" />
        </mxCell>
        <mxCell id="C-vyLk0tnHw3VtMMgP7b-27" value="" style="shape=partialRectangle;collapsible=0;dropTarget=0;pointerEvents=0;fillColor=none;points=[[0,0.5],[1,0.5]];portConstraint=eastwest;top=0;left=0;right=0;bottom=0;" parent="C-vyLk0tnHw3VtMMgP7b-23" vertex="1">
          <mxGeometry y="60" width="250" height="30" as="geometry" />
        </mxCell>
        <mxCell id="C-vyLk0tnHw3VtMMgP7b-28" value="" style="shape=partialRectangle;overflow=hidden;connectable=0;fillColor=none;top=0;left=0;bottom=0;right=0;" parent="C-vyLk0tnHw3VtMMgP7b-27" vertex="1">
          <mxGeometry width="30" height="30" as="geometry" />
        </mxCell>
        <mxCell id="C-vyLk0tnHw3VtMMgP7b-29" value="customer_name char(50) NOT NULL" style="shape=partialRectangle;overflow=hidden;connectable=0;fillColor=none;top=0;left=0;bottom=0;right=0;align=left;spacingLeft=6;" parent="C-vyLk0tnHw3VtMMgP7b-27" vertex="1">
          <mxGeometry x="30" width="220" height="30" as="geometry" />
        </mxCell>
        <mxCell id="L4crU5eTOJmEewNLvefr-1" value="&lt;h2&gt;内容管理&lt;/h2&gt;" style="text;html=1;align=center;verticalAlign=middle;resizable=0;points=[];autosize=1;strokeColor=none;fillColor=none;" vertex="1" parent="1">
          <mxGeometry x="80" y="860" width="100" height="60" as="geometry" />
        </mxCell>
        <mxCell id="L4crU5eTOJmEewNLvefr-3" value="&lt;h2&gt;订单管理&lt;/h2&gt;" style="text;html=1;align=center;verticalAlign=middle;resizable=0;points=[];autosize=1;strokeColor=none;fillColor=none;" vertex="1" parent="1">
          <mxGeometry x="80" y="700" width="100" height="60" as="geometry" />
        </mxCell>
        <mxCell id="L4crU5eTOJmEewNLvefr-4" value="&lt;h2&gt;商品管理&lt;/h2&gt;" style="text;html=1;align=center;verticalAlign=middle;resizable=0;points=[];autosize=1;strokeColor=none;fillColor=none;" vertex="1" parent="1">
          <mxGeometry x="80" y="650" width="100" height="60" as="geometry" />
        </mxCell>
        <mxCell id="L4crU5eTOJmEewNLvefr-5" value="&lt;h2&gt;管理员&lt;/h2&gt;" style="text;html=1;align=center;verticalAlign=middle;resizable=0;points=[];autosize=1;strokeColor=none;fillColor=none;" vertex="1" parent="1">
          <mxGeometry x="90" y="570" width="80" height="60" as="geometry" />
        </mxCell>
        <mxCell id="L4crU5eTOJmEewNLvefr-6" value="" style="shape=image;verticalLabelPosition=bottom;labelBackgroundColor=default;verticalAlign=top;aspect=fixed;imageAspect=0;image=data:image/png,iVBORw0KGgoAAAANSUhEUgAAANEAAALsCAYAAAB9QVK1AAAgAElEQVR4nO3de3xU1b3//1eAgBmQYLlIIogkaBIEEY0VDYLV1HgrngZPUhuPRNL0tGkhbYkVteNtvirWWAXasadjaPCYtvATerTWGk2tpsZiRfECJFgCRZFEkJaATJAg/P6YmWRmMjO5rD25+X4+Hn00s69r4n7PZ62194SYM5KmnkCkl+ys39LbTTA2qLcbINLfKUQihhQiEUMKkYihIb3dAJHoeBfnnIWscndxN9tCVlUXcU4XdonR7Jz0pqjOzrkPcehoF/cZejIn27q2S5Qr0b28WD+TN5O/xtKI2+VTsekWLh7ZiUPWr2PyFXcCsOyFLeQm+688xGv3zSIv5Q/svGIf98+s5tJNtzDuhbP56q2da/GyF7aQO/Z17p+5EFdntk3uYKMwbW/nwT+wc+am8OsjWbiKd+4Yy586/D17FFZs4PapWz3v8UHf78r3fu/lxfor2HvfLPJWdb0pfYqt64Hojj7Vndv+VOSLvbBiA7ePbXu99IqzWeoNoH9Qlr2QBPs24QIu7WIbll6xjvPr5/P9inxceeUd7xApGF1x6ya218/nnYodzAhz3sKKDdw+6+Swh8it30JuiOUHNzzkd8x7yZl1Mtuf6vhDYiA4+raTm28/iVufW9ilLlpX9ECIxjJxIeD3qbbshS2cv6mD6tDFT9c293J+MsB8dtZ7F12/hZ3Xe38+6K0yC1fxzh0XErb4zbqFnfW3BC3cwZoutydIt87rrbB5s0Jf+F34XRVWXMGUg69zP39gZ32Sd2kSt9dv4Xa/7abcsYWdd3T8wdaXHdr4KAt/9C5X/fKXUQsQWBWiB//AzuuTApfVr2PyFQAnc/E37oVV/l2wQ2zflA904pO+i1ovkpkLcYWoUoG6EgpP19QaXT3vFX6vw3d921WidlXSrwrdCq5b8fy3G5DduZ08vexJuLmChVOHAntY+615/PTtDnYbVcSqqq5VLWtCdOvXmOx3kRZWbOD77AC8wUq+goqFd/LhN7aQm2zBp3kErnCf1sFWLWRGly6SO/lqV8Y/Ec+bT8WmLezszBjw4Ovcn9z+PXW16wuw7IX5TAG2d7HJ/dNkbvyf5ez575sptlXwUO5kch7fSE4UzhSF7ty95MyCzfeVA/cCO9hen8TFd2zBku6Qn4AxwvVb2Hn9Dl7bMJaLg8cN/t05fBdgFyYzfA52bsKhY+XkzfRVYW876NqxpwS9p5Dq234srNhA7tgdbD+YFH77gWZ0Bj/+9XJW/WIbh5jM6CidxvoQPTiTKQe3stbvU/7NK9ZB/Xx4ytoK5Kk6EbpsreOPUOH1v5CD9+nOWKyr2kK8/amHeO2KW7j9hXtx+XW/PF3f0B88XatE+Vw6dR9rZq5j4qZbGGf1W+nLTr6AhdH9D2l1iPKpuCKJ7S98LegT9U7WbriC26//A8tu7cLFeXCf/4dp19vyjbHsPQh7t+7jqhfuZakVs2hBDu7b0bUdWsePh3jtvrOZvMqvIo6czzubrmDkSE8l3f7U2d5xZXtdq0S+D4x8KoD246rwEwvWVd+By9IQFVZ8x9MtCfEJ6cqbRfILW8jt5MVcePlURo7cR3eHIYUV32Hcpl+y94pbGLd7IX8au4UXH7wz8NM71ISIV6jp4sBP/3wmjoW9m7o4OdI6fvSOi+7wTEFPzsPbrdvK/ffB9+8Yy5sRKk13xkRtwlThgeboIQ519YmFXr3Z+uAfuH0WvHZf+E+tpVc8xMRNt7DzBYJmjYL+oy5cxfdnwcGDSZ6L2TvLFHnSwG9WiVV8f+pWfp4Hl17hO/c6XqzfQMU2v1mnoAkR37k71Z1bOIdpIw+xeVukjUJoV4k8F/zO+pOhfgfbk6dyKbP4+YYN3L5pFfVhqkBXx0Th5VOx6Tuw0vN78YTvBWvuffWqnTyZ/588+n4Xd+vGYz/WhGjhKt65PomDGx7qYFq0nLyZSbxYP5+dmyaE7iZ4L7K2T1pP12Nn/fyQn76FFd/xdEuun8ma5FksXbiKd+6Yyub7POOltputd/LVp2ay844NVNDJ6VvfmCpEl2bZNzzLX+7qNHCISkT9OiYn34n/dLYrbxZUbOD2+g1cGmK62awS+Xi7dfte537vElfeL7l00y3h//v0G5O58TcbubEHzmTJU9yFl09lZP269nfaF04IMYi9k68mP8RrXMjtL9zbtvjBP7CzfovnnkWy/wVSTt7Ms5l83+uMu34LOzetotC7ZtkLWzyfmslnMzn5a94AXQgbfhk6JLd+jfs3wMWL2o4R0aqFzEg+m/tfGMulD/otf/AP5CYf4rWV3bjIfO+z/juw8mxP232f+kG/L1feLCbft5Vpd2xhp//vyhL38mL9LUzb+hCTr1iIq/X35fl9r9l3IbfX/4FlFp91IIrCA6j38mK9534EBD9yEoKve9PJx2cCnvsKWrfshS1ctc//fOFn7jp6hCacgxse4k9jbwk6j4GgcVn431c3puRbDxp88/khz1ixg2cKl72whVwseqwpjIHw9XA9xS29aiCESF/KEzGkEIkYUohEDClEIoYUIhFDCpGIIYVIxJBCJGJIIRIxpBCJGIpuiBau4p36DVQs7Pquy17YwjsV+da3ScRifbYSLf3d6zBrvp4ilj6vz4aIVQv5U30SV6kaSR9n0VPcVv3lnOC/eTZQ/gaahKOnuINsf8r7JTPf/+57nYO+r0H7L38q6I97LFzFOyG/AHYnazfAuBTPq2UvROPLaSJm+kR3zvPN2E0h/6aBK29W6xfHlv7udQ4mz+fFB0NsKNJLhpw4YcV38lr4rLmZI0dPEHC4ls9obm7ms5ag5UeP0Nz8GS0nTnCCG7lo8hA+rtvGiROTORJqe5+ym3lk9sv8+JLHyD/xHX5tQculdzU3N/d2E4wNiYmJwTxIgxkSG0tqzrtsD/F3Wi/5ybts/0nQwoMHGAzAFBJHH+H96ieBu4mNjWXI4PBn+vXNL/ON97P5xgPw69sMmy29LjY2trebYGwIQExMjOFhYhg0eDA7fz+NK/z7ZDeX8fYdU9l830Xc6F82lj3DjisGERMTQ8yy8znr8DaeKo8hJmYQgwYPZlBMDOGbdA9PvXElt59/LzExdxm2W3rb4MERPjH7CYv+7txqbjxvdfvFMTGeoAQHYuk8krxhW3ZeModq1/O4Z4fQ2wO+GcBpWx9iRt5F3u2lvzP/AO99vf6PfHn+oa7OSGLcSNi7+wvwlzulX+kTs3NtdrD34MmtU9oBFk5gHIfY29W/OCoSZb1eiQKV8/LW73B7mD+R2/FfWBXpefq7c9Kr9MSCiChEIqYUIhFDCpGIIYVIxJBCJGJIIRIxpBCJGFKIRAwpRCKGFCIRQwqRiCGFSMSQQiRiSCESMdTHvpQnYqV3eTR9IU/etIqNi88JWLP/mWKy/lkQtHw/Ty/OwvGa/5Y3Yr9zJ457a8Kc40Z9KU96V/S+lBcqEF4XZ5DxWg3tYnGxncoV1zGa/Ty9+F74yXKuGxcUuLcfJX3VZO927/Jo+kuqRDIwvbsiC8drN7Jq4w845+1HSf/WTuzP3Qn/LwvHazVMfnwjy/Et94QloicWkv5E28usdIf3J1Ui6WVRq0R7n6b4akf7ahPBjY9v5AfnAqpEIl6t3bOOeLp+O7t5GoVIBrRXV6TjeCLCBhfbqVwxu/XluyvSWejb/up0HNyI/U7UnZO+K9p/7efdFemUnVHJ8nkh6lFA18yfunMiAWruzSI93D9rdbG9w/1Hz1vOxpBrzuEHG89RiGTgy7gzTCXqlNBT5W3dOY2J5AsgYiUCwDsVHrgXDu+YaNXGjW2VKEQXUCGSAS9iJdr7NMVX++bl/KrOTavYuOKc0PsE0cSC9KqemFhYGGl2DghdiTz2P1NMVthHfjwUIulV+lvcIqIQiZhSiEQMKUQihhQiEUMKkYghhUjEkEIkYkghEjGkEIkYUohEDEX/Ke5xmRT/6EqmsINnf+akcu8ELvvGV0keDk31z7D25f1Rb4JINEU3RDOyuT0/k+QRANPIua2E+PIGpl9+AYmAe9SHrH25KqpNEIm26IVoRi53Fczl9LgWmt75E39mLtfOSCKrYDxHo3bSQAscTtIPrGfRw/5BzaRkRTbxbxVhLw/cds74rh1/T03gMeSLKSohGnNpISU5Mxkb28KeDX+g7rQruZI3+L8NZ/EfsxIYGo2ThrD6lW2k52bjyK9qvdgXOLKZtGs9i4Iu/tX2Ila3O0IeDtdMmtaUUKqCKWFYHqIxWUXcft004mPdfPByNfumfo3LxsUCc/mPYZt44eVjXHbpRGxWn9grVEWxZTgpy/BbMD6bMld260t3XXC18spPIrH5Q15VgCQCS7+Ud/q1xdxyXQo23NRXvcbRCzJJiw/aqGkblW/EcklmEjbc1D79KKXP7raqCaFlFrNyHjy7eDmVHW2Xm9KJgDdQXegIUbmkqwbCl/Isq0TTv3Eb3758IrbjTdS+9AZDZ2WSNiLEhvEpZM3aQWXVNmZdlkLadT/grhG/5p7fWfjLDBOGHJeTnIAlocLQQUAyi1mZO9Kypkr/Z1mIEhNHY2v5hDcrd5KQlUlibISNRySRNbeBDc9tIjlrJmMSEwCLP5Gat7E2UuXpZBhCT06ItLEsRJU/e5TaSbtJu76U8yMFyCc2gXOm/I1FD/6J03dFoTsXlxKi8gRrsP688oVj4cTCbj7YBWkh1hz9rAWAocNCpGvXbj6wrhFtLKpEAAf2qwpJeNF/YqF5G/+3eDmV3vszaXFRP6OHFZUos5j08XCg3sJ2yYAzcP94Y3cqUdVyFrUWnTwcuSlQV0PTed4p8sYaCuz+24gM5BB1uxLl4XBlkIjniQTPTdkKALKWlFLmyug4oNJpbre7t5tgzPIQHfjUzdHP/MY+7hY8I6IWWtwtHPV7bvzwp01Wn75NlyqRf1ezgerCIkL9WwGVD5d4jpdvp8xVynQ9ySDoL6BKL9vy3hu93QRj+j6RiCGFSMSQQiRiSCESMaQQiRhSiEQMKUQihhQiEUMKkYghhUjEkEIkYmjgPsUtArDvj/x4/oNM+nk13zsnaPlPYelD1/Alv8WbH5tD0W/9FtxwK7fueJAHXw918Fyc1d/TA6jSu6L7AOpmfjGniDXtls9i1oUb2BAcjAtv5f8euoYvsZlfzHmFudXfYxr/4o+3/JZJDwX/3LaNKpEMWJsfK2KNNxh7HptDEU6qr9/Fj+c/yIYkJ9UPwS/mFLFr6f/x06u/FOFIayia4xfF1p9zmYu+CiG9LKqV6N1fMOf77etQOLmtXT5VIpE2Nzip/u60Djfb/NgcXunmKVSJpFdF/0t5/+KPt/xHmIkB8E0O+GL2r+d+zH8s29C6dtZSJ3P/UhRxYkGVSL4AZnHrup9yzdjg5Z4umb8vXf1Tqq8O6s79xRe09t050BS3fCFs4MH5c3gw5DrP5EB4X+Kah74XYvk0vlftqV8KkXwBhKtEneC9z7TBf5nfTF3uz6sVIvkiiFSJIHhc5OGd1r7BSXV1tXeZf3eujUIkXwCRKpEnGD6+JxZmLf0/qiPeO2qj2TnpVb0/OwehK1En973wVoVIepf+7pyIMMT9rZreboNIv6ZKJGJIIRIxpBCJGFKIRAwpRCKGFCIRQwqRiCGFSMSQQiRiSCESMaQQiRjS94mkV9lstt5ugrGohijzKyN44NwhnH4ScPQ4Gzcf4buVR/kgmicV6WFR687NvupkVs3yBghg6CDSz4vjN9fERuuUIr0iSiE6idumDmZYu+UxnDntJB44JTpnFekN0enOzRnC9KFh1g0azAXnAX+Oypk9vjyC9y8fAruaOes3nwWseuTbo7jm0+DlNl69bShn+m945BivHh7C7NFhznHkGHc/8imP+R33m+G29frHuweY/ceuvRXp+6ITopNjQlShNqeeMhQ4GpVTg41XLx9CPMCkOD6+La51TdORE8SfBIwOXM7+o5z6wAHPvrcN5o0HDvFDPMFo8gbxu9+M5+4RLZz6K7cnpBntzxwpJI98exQXWPcmpQ+JToiOR1595PMONui2Yaz74VDO9FYJvhnP3ZOO85sHPueC24Zy5knw6p8PUDXFt9wTlkjiA4I4lI9v85bYI8ei9B6kv4lOiOo+54NzB3N6yJXHeb8+WhfgZ8x/fygfnzOEu28b5V02mG/eNtj7cwyzLx/F7Nblo/gmJ3j1z03M/3voI3alEp15zig+Pqf9cp9/fNTtNyZ9WHRCtPMIf/w4lu+eGhO04gQf7DzKY+9G5axt9h/1XOwdsvHqbdbMFv7wVwc6rGoyMEXpPtFx7v5rC5n/MZQzW89wgn+862b2h7G8+sNRnDnkOO81nuD0xEE0fXiU237TTJVl5x/Euh+OYvZJETbZf5RTf+V7MYx1P4xr3f7M20bxzSPHePVw57pz3/1mPHdPCv7ACCVy1ZP+KXo3W//hpuKj2LaL6+OjfPOPLWRfH8eZJwEMYvoEz6r4SbF8c3IzVTstOO8fD3Eqw1j3wyFhB/qerhmAm9kPeBf+/TOMJhY6rH7WVT3pW6IUosEsvCqOotN8n84n2Li9mdNn2SgY71nWtK+FdbvgkmmxnHlSDBfMjmPhgWZW/du6VkQco+zveP+wXbS/f8pZEauJp7Kd+r6mtL8IrA1RwjAe+cpQrpk4mPiA27gn+OA9mD9/KOknA8c/5zePH+ZugOMn8/GXBzNuwjAWzmpm1Z+sa47ZfZkQ9478u3Mdds1O8PG+7p5b+hPLQvTN60aybOqgiPeHWg2C+FOAf8PsEW3V6uNOVIeu6Gi2LPiGqYd31u7IMe5+4EDruoDuXEeuGcrsk2Lg8lG8P6X9DV8ZWCwKkY2iiAGK4fTp8N23jnLB3KGcedJgvpk/kgsOwbixg4AT7N19lHUWD7gjVqJrTubjs9ra76s6TbuaObWLF/1jv2nyhq3tOL5zP/LtUa0TE027mpmtSYXe8fajpFdfxsbFkT5VQ+yzajKVK64j0sMoMePu/7cFf9A+jqpbhzE90pN4+48y/1du+PpI1qUGbXj8cx578JCne2eJwNm2sEJWIo/OPMbD/qP8hqF+230e8QaubxZPj/+0+bj1fl40vcuj6Qt5MsSajDsrWT4v1H/o8Pvc+PhGfnBu22uLQgTT0+P44VlDOCvs10NO8MbGT3nkaByPXDqU2cOOU/URXDA5GlPc0l9EP0T7eXrxvfCT5Vw3zm/pM8Vk/bMgTGUKvQ9vP0r6t2DVxh/gv5dlIRLpjuiGaD9PL87C8VonNr1plTdQYQK092mKr36Jy54LWo6+2SoD2Lsr7oWFdjKAO1vHNSFC8vajpFf79sniJTKouTodR4hj+i/3desUIhmwzlm8nHP2Ps1LXdpnI8vffpT0Kf5dvXd5NP0lLvPrxr27Ir31uAqRDHyvOchKD6orwZXmpsu6fXiFSAa+i+1+09SRu3OtnlhI+hOBi55MD5yru3GO5/8VIhnY9uyk5rUnu16JWicaQlN3Tr4w9n+wM+heUCcrUQfOWbyxdXykP94oA9i7/O+9cNmsju6ad8/+Z4pJX/GuKpEMYG+/xJM3FbBxXOjV765IZ6F33HPj4z9oW3HuZdz4rfZjovYysD93jm62Su/qmcd+okvdORFDCpGIIYVIxFDMGUlTNSaSXrOzfktvN8GYKpGIIYVIxJBCJGJIIRIxpBCJGFKIRAwpRCKGFCIRQwqRiCGFSMSQQiRiaMjxhJmtLwY1bOrFpoj0T6pEIoYUIhFDCpGIIYVIxJBCJGJIIRIxpBCJGFKIRAwpRCKGFCIRQwqRiCGFSMRQlEJ0Nj9YWcHvnHewYLbfn+RP/io/+JmLdU/ew/XRObFIj4vSP60yiVNGQuzwqcz7wSNkXvUczx24gOsuHEssADbC/GsXIv1OlEL0HOVrxnFd8nAAju7byeaDsZx6xPd6E+uic2KRHmdRiM6l8K48psWHWHX4fZ5a+Rrv8RoptzzEJQnA5DO4/ctfb9umaQur7ynnLWsa0961d/C/+VP511/yKP5FpA2v5p7VeUwb3sHxPnqZ+cWudsfnvQr+657nAjYtWl7BRf8KXl7I8qcuZYL/hoe3svnAVKadFuach7eyesF9PNNB06TnWRSiC5g2PTHwovA5fIBTvD+Om5DIhDAXySywIESRQ2D7SgXrvhJiRUAo3GwuL+SuZ0MfY95dLhZ8yX9JIcvzp2IDmJ7HuqfyWte4D7uxDQdOC1zORy8z//o8z75PncW262/BiSdwSd4ges7zd0+7rr2D//3Pzv0GpOcNsH9u8jnuWtD2iT/vLhcLphMQCs+yA/zZe+GauZp7Vl/KBG+VoPXY75Py1KVMGA6by/N48/zOn9MWEMRLWffUpZ4fD281bq1Eh0UheoPN750FIbtze/m398e9u/ew+/MQ2zRtYYM1DSFUNZqWX8G6fP9tbFz+VAWXA+52XTBbiO2DfOT74Tnu+vtXWPeVqSx4qsLv2IkBx5oWcM7Ilc6tStTvWBSit3E9CZecZmu/yr2Hv3p/fPMvv+fjdpu0cOD9N3jPmob4ThrxQvWZd5eL9tdmV7tztB8jhVXI8qe+3IntpD+xrjt3ZR4/+Epi++UfvcxfN3ousKv+63tc3m5M5GZz+Ru818EF311Fyyu4fJR/d8vG7rATDIHdwVCeuacwxOB+HPesrog8IfHRy8wv9r0IrJYTnqrg8sNb2XxA3bn+aICNifyc/xDr8hPZ/Zc85vsC4w1A0fIK1j3lZvdHwL+867wzbIGFco9nHPO9h1jX7gPCu+4XtzCfq7ln9dSw4WyrXi6Kr/dWrGefQxMLA8PADdGbtzD/nqu5Z3WIGbmPXmb+9a723bmAaWTPBR5y3bV38L/57f/p+AnhZv/AbxwVnrM4L/TEw7P38V9RqtRibuCGqFXQGOd7D7HurIg7dFv4bmJnhLh35N+d6+Q4T3reFyBEIWbbPno/KmeKWIkgzA3TRM+s3eGtrL4+r3VdQHdO+rQvQIjCf4JP+JKtbUwEMNwzVb2gdcEetkVYFyxiJfreQ6xrnZhrqzru9yqYf0/kyQzp26wLUaj7P5113LJWBAk12+bfbXKz+UW/9dEcEwEcPuD9wW+CwatoeUWImUv/7hxdmEqXnhRzekbeCd8Lo7/FPf5q7rgzh/PGxQYu9/sPH+pCcde/yCO3RvG5OenTdtZv6e0mGLMuRCLdMBBCpG+2ihhSiEQMKUQihhQiEUMKkYghhUjEkEIkYkghEjGkEIkYUohEDClEIoYUIhFDQ/TQqYgZVSIRQwqRiCGFSMSQQiRiSCESMaQQiRhSiEQMKUQihhQiEUMKkYghhUjE0BCG+f0bkZ819V5LRPopVSIRQwqRiCGFSMSQQiRiSCESMaQQiRhSiEQMKUQihhQiEUMKkYghhUjEkEIkYmhINA9+w11OrpocG7Cs6U0Xi1b+PZqnFelR1oVo5g3cu/ASThsKfP4BVfcsY2v9dmYM9XtKnBb21O+A637EY9dOYehxOHqolmceWsmfPrasJSI9yrIQZWbO4oyTfVUnmTnfvoF9f36Vp3cEbWibzZJLpzA81rNt7LBzmHfTV/jTQ3+xqikiPcqyEMUODnw9PPkybkq+rHM7D7ayV3kTy8qT+Uf+XZQBZP2Ix25IY3ikXRr+yk23PRF6fz9XLV3ODfFv+m3r5T0HdWv57rIXA1YVPOAivSl4+U0sK7+ERP8N3bVsbUpjakKYNrpr+W3Rz/hTpPchvSLmjLSLTrS+MvhS3lVLl3NDqq1b+x4OcfEZ+dY9PDF7FFt/W8yyyvarQ1/YkfcPG6BQgfA67HYz3Bbid9Ia2sDA+rcr4HxZP+Kx6+CZARiinfVbersJxqIzsbD3dZb8+HH2hd3gdL77UzsXjYvK2eHxu7iJe3jiuh9xVWXnL7zgD4KpN7h44gb/LS7hifJLALc3YF9lqfMSEr1VgqXLuSH1AK/k13Nm+SUk2mDrbwt5Z6ZvefvqFmx4ag5PlOcEnQ9w13byXUhPi06Ixl3Isv85L+ImscOicuY2j9/FTd3YLbgqFjzg4sz6QpY+7lvyVZY6r/X+/CLL3prNE7PTuKHc5V1mY255YuvPU29wMbV1uYu5rQGMfP5QlUj6pqhNcccOi+14I8v5d632dOqTP1hgJfBKcPHEbP8Fbrb6vwwYU3XUvvO72CLp6wZYd+4Jlua3jTW6o2uVyGcMS50upkYaEjb8lZtu8z9GTuv2ieUu5rpr2dqk7lx/NHC7c93U5Ur0+F3cxFdZ6kxjz6v+YWvj6ZpBW8iByhcJNbGg7lz/M8C6c+a6V4k8EmcHh81PQ8fnLrutMHT3s/JnfDfMGEp6X1RC1PL+7ym4/7kIWwR2Z6Iq60c8duknfLcTY5Y/LSvuxEzeiywrCj01Hq4SdU6oqXK/7lwHExLSe6ISotizvs4T5V+PxqG7ZOzS5TyRamPPq4UdbBn+Xg8QojvnFTShELESQZgbpomeWTt3Lb/NL2xdF/6+lPQ1UX0AtddkjSGeRBJT9/BKfnEnZuj8xipB2nfnwotYib51D0+0DhPbQnu4bi03WXmjWXqcZSFq+dyqI1lgYjzDA6pEcPdxD6/cZv2F23El8j0R0j60BQ+4mNvukR//7hxdmEqXnmTZYz/MvIll37mExK7Oun22j43rb2eF+vpfSAPhsR/rQiTSDQMhRPpmq4ghhUjEkEIkYkghEjGkEIkYUohEDClEIoYUIhFDCpGIIYVIxJBCJGJIIRIxNEQPnYqYUSUSMaQQiRhSiEQMKUQihhQiEUMKkYghhUjEkEIkYkghEjGkEIkYUohEDClEIoYUIhFDCpGIIYVIxJBCJGJIIRIxpBCJGFKIRAwpRCKGFCIRQwqRiCGFSMSQQiRiaEg0D3765TdTeO25JI6IBeDopw3UbXieijVv8Ek0TyzSg6IWoun5dooyEhjqt2zoiATOyZ4n0o4AACAASURBVLyZKRPiuefhKgVJBoTodOdmFJIXFCB/ttSv8e1ro3Jmi+XhcNlZ0NvNkD4tKpXowkuSGBtxi1iSz8uGZ9dH4/SQb6csI6Fz2zZvY+3i5VSGXFnBq3Wl5KwopjHsNkBmMStzU6BuPYsergpYtcDhJP1A8PI8HK4MEoPaUduUQtr47rRTelNUQpQ6Jr7jjYbFkwzUR6MBAI01FNgrWl9mLSklZ9SmgGXk2yk7j8DXIcOXQo7LSY7fEndrYPJw5KZgA0jNpsyV3bZNsxtbHDA+cDmNNRQUFnn2dSWxvdDBajyBm+Q9bkB7M4tZOc/gdyFRFZUQNR5yg+eyCu/40egFyEQnPvEXOJykA5BJyYoMEr37sKSUnNQmqgt3MMWVQWIc1K4p4r0ZvuWesERiCwhiBmWujNZ2Sd8UlRBVbmvkP1KTwo6JAPZ98EY0Tt1mvN8F2CrEsuaDBiepovStiyjL8FQqDxtzXAmtP6flOklrXe5kDm5q15RQWhXygK0VTpWo/4jO7Nyzf2LDhd9mzvjY0Os/3cZfXO9H5dStutOds+hc4eXhcM204ITSl0RpinsLq1c+ybHCXC47I7Bbd3T/Zp59zNl3B8hx7cc/obgP+L8aQ8kKJ2lxEXZorKHA7nuRScmK7NbtE11O5jRvo7ZJ3bn+KCohGvPleVxy8ltU3FdCZeq5XHjuTBKH7qf+nbd46Z3djPlyJlmnbqLy7/ujcXqP7nbnOlFV2sZEQLmDAjIpWZHCnpoi7OXtt/dUQYAK7IXeY1d5JyU0sdDvWRyi0Vz238X8Z/oYhnIll126jXffept3t9dQ3xJP/GkZFF97LqlnxDOUr/GVL/+B0p9bf9M1a3S83+yZd1knunNZozsxqwistheFnCBIzHBSFpxbn8buH5eq5SwKM4aS3mdpiKbnF3kD5GEbn8Ksq1OYFXLrWMbO+BrF+Q3Yy7dY2QzGj7JxoL7rV934UTb21HdmbBNauErUOSHuHQVUzsgTEtJ7rAvRuFyyLwr/lEJosSRm5FL49ztxbbWqIZmMjXfTtLur++UxZbybple6f+aIlQjCTJ8neGbtmrextrCodV3Iyil9kmUhmn3DuZzerYeIxpD21Yth62vWNCT/ItL4kLVd/MTOWjKTxMZN2A0+6SNWooCuY1vVcdetp+BhlZf+zKIQXcD5Ezs3ngglPvkCsnjNkhm7BckJ7HnLEeFYgd0md93fqCSTkklQ+4zZp37Hlcg3ieE3weBrt8PJnHaP/ARNhHR6Kl16UswZSVNPmB8mVH++Kxo6dTdfBp6d9daOh3uDRSES6Z6BECJ9s1XEkEIkYkghEjGkEIkYUohEDClEIoYUIhFDCpGIIYVIxJBCJGJIIRIxpBCJGFKIRAwpRCKGFCIRQwqRiCGFSMSQQiRiSCESMaQQiRhSiEQMKUQihhQiEUMKkYghhUjEkEIkYkghEjGkEIkYUohEDClEIoYUIhFDCpGIIYVIxJBCJGJIIRIxpBCJGFKIRAwNsfZwmRQtu5LpI2K7tNexTzfz7FIXldY2RqRHWFyJhmAb1rUAAQwZ1PV9RPoKayvRpA/565on+Ws3dnVPAnZZ2hqRHmFhiEaTt+B7XDaxe3u76+JZ9HCVNU3JLGZl7kR2rSmhtCqTkhXZpMWF2baxhgJ7RdhDLXA4mRO/jbWLl4fvbmYWszI3BerWt3sPCxxO0g8EL8/D4cog0X/D5m3UNqWQNj7MOZo7aIP0GutCNC6TKad1f3fb5HO5hir+aEVbqpaziGJW5pZSQgmli0OHM2tJKTmjIh9qtb2GKa4MZudDZXmoLfJw5KZgA0jNpsyV3brG3ezGFgeMD1xOYw0FhUWefV1JbC90sBpP4CZ5g+hp2yZPwDOLWTmvS78B6UGWhSj1urM53WSENSyJ9G+M5o+/22/Ykjwcrpk0rSlhUWHX9lzgcDInXCXIcFKWEbSs8RNq48eQ6K0SLCklJ7WJ6sIdTHFlkBgHtWuKeG+Gb7knLJHYAoKYQZnLe9LmbV17M9JjLArRWVyWPMb4KKdPn0fq735NnQUt6q49NUXYAypOWyhLQxW0fDtlGSnkuJzeBTbmuBJaf07LdZLWutzJHNzUhjsW4FYl6ncsq0Qtnwe+btr7CfHj/ILV1MCekxJIHNa6B/v2tjB2nK1tm8+aejVA4XnCUJYbuHRPTRF26HBc1cYTSBlYLArR+7jWvkJi/sWMHwbHPnqNX9+3mbQluVySHM+Qzz7hrWed/H5YLiXXpBA/pIWmrc9TuraFrxd9jfPGxXLs4A7++vR6a5pjuQjVIx9gDCUrnOEnL8AbNN+LwMmORJeTOc3bqG1Sd64/sm5i4Z013PNUM4WpUFv2DO8B7z18J2sDNnKyNGh6yXV3C18vmIj7b2uo3GpZa3pOuYMCMilZkRKiK+jRNoFRgb3QW7GqqtDEwsBg7X2iM2cwaxYcLXuGVzu902TOmzWTpl19KETeKWu/jiaJAd250JUpMdTkg09jx6ddbS8KPfFQtZxFFs3+i/UsfuynP8tkbLybpt3el2Hvy4Qf14SrRJ0T4t6Rf3eugwkJ6T0KkU/m2UyKa2JjFZDZvUNErEQQJpgJnlm75m2sLSxqXRfQnZM+7QsfIveBjwFYMDcFW2NNW3cqzjNtnRN6L5pCLI1YifLtlJ3ne9FWddx16ymw6kkN6RVRCJGN0wpupvP3OUczHEJelNGQtaSUnFTfaMdN7RrPAH/K+AaqC/0+9bvRneu4Eh30/uA3weAV+kavf3eOLkylS0+KOSNp6gnLjjYjD0fBlxnT1ScXjjey4ZcPsLqvTCxIj9lZv6W3m2DM2hCJdNFACJG+2SpiSCESMaQQiRhSiEQMKUQihhQiEUMKkYghhUjEkEIkYkghEjGkEIkYUohEDClEIoYUIhFDCpGIIYVIxJBCJGJIIRIxpBCJGFKIRAwpRCKGFCIRQwqRiCGFSMSQQiRiSCESMaQQiRhSiEQMKUQihhQiEUMKkYghhUjEkEIkYkghEjGkEIkYUohEDClEIoaGWHmw6fl2ijISGBp2Cze1T22Csz+m/GdVfGLlyUV6iaWV6LzkSAHy+hzi07K5/UeZjLHy5CK9pNe6c/FpX+P27ytI0v9Z2p3rmI1JM/bz/MYGrpw+hrjUKynOd2Mvfy3qZ17gcDKlvgh7eRd2yixmZW4K1K1n0cNV3dpugcNJ+oHg5Xk4XBkk+m/YvI3aphTSxoc5R/M21i5eTmUXmi89o4dDBLbUq7j8n9t4d9Nuz4Kmnm5BGPl2yjISQq9LzabMlR20sIHqQgerycORm4ItxHbuZje2OGB80P6NNRQUFuEJUxLbCx2sxhO4Sd4gZi0pJWfUJgrsFZ6QzrP03YqFejxEEEv8GdOYdYb3ZeNRXL+3shJlUrIim7S4EKvGOynLCFy0p8avOjXWeC5a7zEm7WqrIFlLSsmZ9KG3Gngufs92GSR6qwRLSslJbaK6cAdTXBkkxkHtmiLem+Fb7glLJLaAIGZQ5vI2uHlbt34bEn3RCdHxFo62dLBNbCxDozgiCwiHNxTxbwV25xY4nEzxvSh3UOBdNme8Z/9F5Xk4XE5G1a1n0cMlVObbKXM5yWmsoaDQ4dnvrYsoy0ghx+X0HsjGHFdC689puU7SWpc7mYOb2jUllIbpHbpVifqdqITo6N5tvPXP5ojb2M44l3PGx0bj9CGcSnycm6bdkbbxjFNG1a2nwF7luXBdKVBXw65J2axcAosedlBQ7qlKZQ68VQu/CtaRPByumRa8H+lLohKioeOnMSvcALk35CeRiI3EuXlQFe5ir8Be6FmXtaSUnFSbXzWrYIHDSdmKsz3duYdLggb4YyhZ4QzdhfRprKHA7nsR2OVMdDmZ07yN2iZ15/qj6FSixs19qBLl4chIYE9NEduTnZS5ksKPTXyTC83bWFsYOBO22l7E6sxiVvq6c77KU+6ggExKVqQEdSHbeLpm4B9UqqrQxMLAEJ1KNGI8p0+MPCiKHdEDAfKGwl23nkXlAEU0Liklx1XK2DUl7Gvd0FcZ3LibwRbnGePkhDnsHpIoczlbxy8+iRntJy5aNXbc3NX2otDhrlrOoggz7NK7ojOxMGIMiSOicuROS8xwUkYD1YWBF2alb4JgXrHf9HoVpYs9V+kCh5P0XeHuC3knKOodfl2zNuEqUeeEuHfk353rYEJCek9UQuTeUcWTf/kw4jaTvpJLVpItGqcHOrigyz0TBAscTuItPGfESgRhbpgmeGbtmrextrCodV1Ad076tKiEyJaUybeTonHknmELeXO1zZ5wyyMFN99O2Xm+F21Vx123noJIT0NIn9cLN1t7l2/mzaOB6hDdsuCxThtvdy7MsTuuRAe9P/hNMHj57k8F8u/O0YWpdOlJMWckTT1h1cGm59spuiihCzdRW9hT8yvs5VusaoL0Mzvr+/9/e0tDJNJVAyFE+mariCGFSMSQQiRiSCESMaQQiRhSiEQMKUQihhQiEUMKkYghhUjEkEIkYkghEjGkEIkYUohEDClEIoYUIhFDCpGIIYVIxJBCJGJIIRIxpBCJGFKIRAwpRCKGFCIRQwqRiCGFSMSQQiRiSCESMaQQiRhSiEQMKUQihhQiEUMKkYghhUjEkEIkYkghEjGkEIkYGmLNYfJwuDJIBGjextrFy6kMt54G6jfFkjBtDAfetGMv229NE0R6iUUhOsaxz1o4CuBuoSXSeo5xOC4e2+AWDg9JAhQi6d8sClET+z75xHOw5iYOR1rPJ3zwxzf45NOzmTJ8Iqm8QZ01jRDpFRaFaDQJpyV4u3MHmXRTCdcmxXnXNbP9+ddo+HC3t0LtZ9+Es8lNT8H2WSxpEMUQZVKyIpv4t4qwl3uWZC0p5VqeZ9HDVSG2z8PhmknTmhJKg1ZnLSklZ9QmCuwVIU5TzMrcFKhb3+64CxxO0g8EL/fv3no1b6O2KYW08WHeSshusvQFFoUoUNzI0SSeFu95cbyJT4ZP5IyZ5+K5Phpxl33AgdwUbMNGkjAV2GrVmT2hSYsLWpzhpCzDf0E2Za7stpeNNRTYK8haMpPExk3Yq8B3oVPTFsC20xSzMnckGwsdrCYPR24KNoDUwOO6m93Y4oDxIc5XWOQ9RxLbCx2sxhO4Sd4gBoQ2s5iV80x/NxItUQlR874dvPnnD3nzn80knjUBDg9hzLBYhnpPOYTdNH0KiSPiGXUmFoaoitLF/p/4XalEecxOtQEZlLkygAaqC4vA4WTlkvU869ss307ZeQdZW+igkkxKVmSQ6K0SLCklJ7WJ6sIdTHFlkBgHtWuKeG+Gb7knLJHYAoLoawvQvK37vxaJquhUogkpnJ86k/MBcFO7Z1PQFq+wrymXtBGxjJl4AfCGZefOWlJKTqotcGHESuSmdk0J782YSaK3IgWwF7EayFpyped1uYOC1spURelbF1GWkUKOy+ldZmOOK6H157RcJ2mty53M8Z4vuLvo41Yl6neiEqLO+PCgG06zEf+liVgZIsDTXapPoiwjIcJGDd6KMRPIZPokG8T5ffI31lBNBnMCxih+62loqyyhwheSZ8wlA0uvheilj/aTl2aDkeO5EHjdouNWPlziGXzn2yMMxj1jEajAXui9+KuqaD9GyWitDKH39xlDyQpn+7GYv8YaCuy+F4Fjt0SXkznN26htUneuP+q1ELGriSYmEn9yPJOwLkQB4jzdrJyQKxvY3olD2IImC9rtX+6ggExKVqSwJ9QkBL6ZPeg4tJpY6I8sDdHRz1q8kwedsKGRppuSiD02ktMvB/5sZUsIGrt0JERloIE9jXSyEnn3azf28tPYcStWe8df7VQtZ1GYMZT0PstC1Lzjeb77QB1Ft13VyT0+ZN87b3DPX20UplvVCi/vfRtbhxv6xjW+Wb32lWFOR5XIT7hK1Dkh7h0FjMEiT0hI77EsRHHjJvP1y09m7Ag4/K/gtW/zl2cP4blz1OS9+N6ggQtYcFE8yfFzgVesaopHhzcnQ1eT1nUrxtDUZGElCtumBM+sXfM21hYWta6LeHNX+hTrunMjUrj2GymeO+9/30T1jt3UNbgZc8ZZDP30XL6S2/YAavXTr/AeUMt4bjnfxr53Io3IuynieMgnqJpkjmEUCcxxxVO7poR9c51M6sIpI1aifDtl5/letFUdd916CkI+PSH9hUUh2slbG4byAcCRDzk88XKyZmQwB4Am3v3dH9rWs5967151f62mesQFpE1I4jLgJWsa08kxRIhqMmEkNr/p6gVz/VcGPQ3RvI1Xg47YcSU66P3Bb4LBa4HDGTSdDoHdObowlS49KeaMpKknzA8T+FWI6l0TmdN6w9NN7ZpNxPtXIt/9lamFLCuexvB/b+b5pS7+aN4Q6Wd21m/p7SYYsyhEIt0zEEKkb7aKGFKIRAwpRCKGFCIRQwqRiCGFSMSQQiRiSCESMaQQiRhSiEQMKUQihhQiEUMKkYghhUjEkEIkYkghEjGkEIkYUohEDClEIoYUIhFDCpGIIYVIxJBCJGJIIRIxpBCJGFKIRAwpRCKGFCIRQwqRiCGFSMSQQiRiSCESMaQQiRhSiEQMKUQihhQiEUMKkYghi0KUSckjTsoeKSbLmgOK9BsWhehU4kcAI0Yyvht7jxk32ppmiPSC3u3OTZpL4d2l3H7DtF5thoiJIb1y1nEXkPNfX+MrqWMYCuz55yvWHTvfTlnyDgrsFWQtKeVanmfRw1Cy4kp4poRSilk5D55dvJzKdjvn4XAlsb3QwerMYlbmpmALe6IGqgsdrAYgk5IV2UzatZ5FD1e1bZJZzMrckWxs3Y7AdXM/YZG9IuTRFzicpB8IOp70ST0foinzKPnelaSN8C1w07TbwuOXO1i7pJSVSz7mWQBOpWTFTE+AqoD8kbDrbyECFELzNtZGCFurzLOZFNfAxuALvmo5G+c6mePIY3VwWLzryhxQECZI0j9EOURnc81N5zK07nl+//f9nkXbn6H0gSHcdXcmp8cCNLHPwg/bBQ4nc8YDZJMDQAZpALmllFDCvuQEbOOzKXNlt+3UWEM1Gd79INHlJL2xAeISyHE5vccJ1sB23znnpkDdelYHnN9fBmWujNZXe2qKsJfDavt6xq64kpLMCk/ApV+KaohSb8rm2ksSGJoxjbTTn+T+p7YAMDvnAk6PBfdHH3LY5qbRwnOuthexGshaUkpOqg13nV+XKLOYleP9umF+XT+oYHVwd27ewY4rUWYx6eMb2GivCji/Z5uZNK0piRCQKkoXKz39XfRCNG4e2V9OYGiLGzfxJGd9m2Wj11O6+WyyZ8TDp9t49u7lVI4bzRhLT+wZn6TFNVBbB2mp2ZS5LqK60AFzJ0JzU+uWWaPjcR/4uJPH9Q9FBfZC77nmpXCgpojVvvM21VBg/5iSFRlQU+QNkF84W4+VQSIAbmrXPA/zskmLCzpliIqprl/fE7UQzc65iORhsG/jr1m6IYXb8zNJTs/lwfMA3NQ+/6TnE37vfj6x7KxtA/yCh6vIWlLKpLr1LNp/EWUuJzRvo3rXRKbkA+WZTJ9k48BbwZUggTkuJ1PqtkFcSrvuXGKuk7Jc74vGz9gTB4kZTsoywF3nOe8Ch9MzyVDu26sCe42dshXFNC5eTiUV2Asr8AUzVEXSxEL/EZ0QzSjk2hnx0LSZZ/9nC7CF+x/YT1FxNuePi8Vd9zzllfujcOK2izHwIqyiwHdB59spS86DzDGeyYByaKte0DrrllnMykn+EwsRumf5xZTsXk5placbOWc87asIAAnkOPKoVDUZUKIQotHkXDeNsbRQ/9c1vOpbvPcVnHfUc9nVqezZWGVh9fHnHwYCL2RfV6h8B3tcM1k5z4atscbbvfKFz2+sM2EktqaDTF/hJMevm9VaiXwzd/l2yjISAM/yPTVFFBR6x2SjNnm7dtnEv1WEvTyTEk0kDDiWh2jodTcza2IsRz+qYf3TwdVmNy89Z+V8drAqShefGlQxPMGKr/d9+lfwat1MclIbqF4cviJ4xks7ID6ldTatVabnXhPAguSEsFPh7cdbmkgYiCwOkY20SxIYyie8+fsK6qw9eOfkw/bCTUxxtY1d3HV+45PMYq5NtQE20pdksjrkmMM3XvoYJkU+XeBsXAaJjTUU2GF2KuxaUwVkBmzfdgM46Lwd3HyVvsviEMUTHw/uumqc71h75E4rr/CMZwBws6cRElOzceRX8epoz7T3npoiFpXn4XBlU+Y4tf2MV/5FpLGNteUw/by2iYMAzdu82/q6cw1UFxZh94ZpVN167CHyOX6UDQ74L7GRluukDDe1a5Zb9EuQnhSViQVbaqhBdScd/4QNy+/EtbU7O7dNb1cXFgU8arPA4SRnfAPVhSXe5Z4ZsgUOz1MDrTdbm7fRlJzCnrccVJLJdIjQncvDcd5B1hY6qMRTZcpSoXZNkV+Aqnhv15XktAbRTe0r3pX5SSTipjbivSTp62LOSJp6wvwwmZQ8ku33KI+Blgaqf+5gdbdCJP3Nzvotvd0EYxaFSKR7BkKI9M1WEUMKkYghhUjEkEIkYkghEjGkEIkYUohEDClEIoYUIhFDCpGIIYVIxJBCJGJIIRIxpBCJGFKIRAwpRCKGFCIRQwqRiCGFSMSQQiRiSCESMaQQiRhSiEQMKUQihhQiEUMKkYghhUjEkEIkYkghEjGkEIkYUohEDClEIoYUIhFDCpGIIYVIxJBCJGJIIRIxNCRqRz6zhbisIwybdJTYoceIYRDHjw7l6K5hNFeeRMs/onZmkR5lfYhijzP0vw8Rf+YRYgJWHGfQ0COcdOYRTjrzEEf/MYqD/xPL8RbLWyDSo6ztzsV+TtxP9jOqXYCCHWfomf9i9E+OMDjW0haI9DhLK1FsURMnjzoeeuXxoRzZPYzPP4OYsc3EjTpGzKgm4ouG8O/lQzhhZUNCWOBwMocaCuwVHWyZh8OVQSINVK85SHpuCrZQmzVGPlbWklKu5XkWPVxl0mzpB6wL0cxmRiSF6ZsdHcG/HxxOy2GIiYMT/7LRfFMTXzr/CEOSDhE38xTcmyxrSbcscDiZM97z856aIgrKgcxi0pu3sXbxcir9ts1aUkrOqMjHq3znQ67NvZKSzCpKlaMBzbIQDbnITbie2ZENcbTEfcZI+wFOYhCfvT6apt/aaD7/CDaOEnfRMdybojfH0Rmr7UWsJpOSFdnEd3HfrCWl5KSGrFek5Topyw1c5q5brwo1gFh05R4nNuFY+LUHB0HqMU7ybjt45HFoieFECxALgxOOMYghhOkIdk++nbIMqC50sDpghScoaU3+3TFfF84rw0lZhpvamg8hLoUcl5Oc4OM3Br5UML64LArR5wwe6f96EEf/eTLN+44x/ILDfstjcb88isPPDiIm61NO8pWukZ8zGCwN0YLkBNx164MCBFBF6TNnszI3A0d+BfZygArshRWQWczK3BQO1BR5lwPl7Q4Qnnf/0DXJQ2EbeKLQhxrEZ298iaYnBxNz9WGGB6wbzAmOMey/mzm5wxk8A5nFpI9vYKM9zMVatZxnZ5SSc14xWeVt452sGROxAbaMUkp2l7Bvbts4KZQ9/mHzHndRFZCZSVZVVetxfeOtdtvLgGBRiAbz+UFgJEAczWsGMzj/34yeeRSAo63bHWH4pUfa735wMJ9b0xAAFsxNgZBVqE3lw5uY7crg2iWZVD5cBWQyfRK4m+FAUxNp84p5b3ERBb4d8u2UJe/oxOweZE24iGtd2a1dwD01RRTYzd6T9F0WhWgQLQ1DYGSocdFQjn8CMaeH76x93mDheCjfzpz4bawNV4VaVWCvSaIswzuDNuEi0po+pDY+hfh6B2tHlzI7Hyo7UTnGj7IBF7HSlR2yK5eY4aQso+21KtLAYll37tjfbLSkHCSWZuJy42gqP4V9VcfBPYgThz4nLtsdZs+hNP/NqmZkUnJePLXPOAKmpMMq/xu152UzacaPKJkUT+0zf4N5KQBUPlxCZb6dMleC3w4JlLm8aQia+j5Q78AeXG0yi1k5D571bZdZzMrciTTtNnmP0tdYNybaFMenc5o5JamFYRf8iy9NHo77zSEcH36Mk84/zElxoXc7tuNkmi27R1RF6eKuDNp92+fhcHyMvQpK5vmtLnd47hdBhO5cHlPGu2l6paNzZVIyz9PN1H2jgcXSiYUWZzyHfvIvTh51nCFjDjEyK/L2Jw7E0+SM/tMKHavwVpHMLu+ZtWQmiY2b6LD32OWAS39h7excy2Ca/99oPg/5AKq/QT3yAKr/UwjgpnZNx5MCrUJOV/t15wAaP6E2Hmqf8T+u9z6Ur/I21nSuayn9VswZSVOjUwj0VQjphJ31W3q7Ccai96zNP2Jp/kcszVE7gUjfoG+2ihhSiEQMKUQihhQiEUMKkYghhUjEkEIkYkghEjGkEIkYUohEDClEIoYUIhFDCpGIIYVIxJBCJGJIIRIxpBCJGFKIRAwpRCKGFCIRQwqRiCGFSMSQQiRiSCESMaQQiRhSiEQMKUQihhQiEUMKkYghhUjEkEIkYkghEjGkEIkYUohEDClEIoYUIhFDlv/Dx/NH2cg+ZXi75R+1HOPHu/8dsKw5fxYAceUbrG6GSI+xPEQ/nXBKmDVDWffvw7x++CgAh0su5/OzxrWuVZCkv+qV7lxwgFountxalUT6G8srUUeCA+TTcvFkIHoVaYHDSfqB9Sx6uCr8Rvl2yjISOnfA5m2sXbycSpPzhTr/eQcjHlf6nh4P0YkvtR8v9YTVr2wjPfdKSjKrKI10XTfWUGCvaH2ZtaSUnFGbApZ5LvYoNLLcwdrRpVy7JJPKroRPelWPh8j2sz/j/tHlHB8TGKbB7++1rAplLSklJ9UWcl1arpOy3MBle2qKsJd392x5OFwZJIZaNT6bMld24LKgkAarfHgTs12dCLv0GZaHaPfRY0wYGvqwH7UcZ9Dhw+2CKprPSgAACEZJREFUNPj9vQwv/bO1DengYg1rfAZlroyghSGWNR/0e+Gmdk1JwEUfsjuXb6csOcQ58+2UJe/wtrcCe00SZXPzoKqCBQ4nc+jme5EeYXmI8v65n+xRcSHX7T56DIBBn7QFKeZfh60PUCjtxhueCkJwFerB7lzrseuDVpQ7KPD+6OmGJrEAWG1+SokCy2fnYuJOsH98S7v/vXnSkdZtYmfkMOy0azhlzUmMenE0sTNyGDLtOqubwgKHkzJHnudF+Q72xE1keqZ3ZX4SiTSwvdvdOFOZTJ9kY099BxWmajkbGxNIX5IZeTvpNZZXov8vZySnjgidzXkVTbx/zq3Ezrwh5Pqjw8dy9PXHLWmH+8DHrH7H/1P8Y5qabUyakQlVVWSNjofGTe0/3bvVneuGzLOZFNfAxnIgP/Kmq+sbmJNxEQuoUjXqgywPUbgAAZxii2HQyJBDcABiRpxqbWOqtrBrXjZT8oHyKt7bdSVpo06ltQq8FVgFskbH464LHMd0rjtnCzlhEXpiYYfnuDMmYgsV4lDKd7AnI8P7Pjqzg/SkHp+d6wnjR9k4UO8Jwnu7riQnOQ+ooHJ/EzmpSSzITyItroHq8vD7dU1XJxZChzgU33GerXO3vg/pWwZgiPKYMt5N0yueV5XvfMi1vi5duYOCcs+F6a5bH1QFMhkb76Zpd1fPV4G9sJMXtt+EQenizof1wP4qKsurdAO2jxpwIcpaMpPExk3Yfddo1XIWBVyvnpDteiXoIs6/iDQ+ZG1v3ZuJH0MWBAUl8ANB+qYBFqI8ZqdC7ZqKDh/hSfQbw7jr1rNxVAJ73nJE+LQPvKnqrvubdZXBO+bJcTnJCV7XWNP2gSB9UswZSVNPWHlA+6U2vjHtpHbLPzhwnKuePMCQlCsZdsVdxAweHLD+xGeHOfLsLXz+4UYrmyN93M76Lb3dBGOWh0ikKwZCiPTNVhFDCpGIIYVIxJBCJGJIIRIxpBCJGFKIRAwpRCKGFCIRQwqRiCGFSMSQQiRiSCESMaQQiRhSiEQMKUQihhQiEUMKkYghhUjEkEIkYkghEjGkEIkYUohEDClEIoYUIhFDCpGIIYVIxJBCJGJIIRIxpBCJGFKIRAwpRCKGFCIRQwqRiCGFSMSQQiRiSCESMaQQiRgaEp3DTuCygpv5+pcTsH3ewIZyJ66/7wdgzJdvpjj/AhJp4oM3n+fXZa/wQXQaIdIjYs5ImnrC2kNeQNGymzl/dODSo5+1ADB0WGzgiv2b+NVSF69b2wjpJ3bWb+ntJhiLQiWKx2Zrv7RdeHxsNkZZ3wiRHhOFEH2A2w3EdXLzQwd50+IWLHA4mUMNBfYK75I8HK4MEoO2c9etZ9HDVd5XmZSsyCats+1u9D++fJFZP7EwYy6nB3XlOO6mqbGBPY1NuI8HrRs3mZwZ1jZhtb2IajIoc+T5LW2gurCIAu//qhtD77unxrtNTYMnKIVFFBTWsAc3tWs869bWua1tsPRrFlai0aRmzSPvmpmM9Vvq3lHFk2XreX2vd8G4C8gpyCUrydfnG8P5BXYK/7iG31e+zycWtWa1vYjVvhf5SSQ2H+TVTuyXmOGkLMP3KoEyV0bbulwnZbneF2FCKF88FoXoYop+eiPnnxK0uGkzax5YHzhpsPcN1j4QS0LpjZwT710Wl8Cs63/ArMs38esfuzp1sXdeHo6MBNx1f6My4nZVlC6uard0gcPJlPoi7OWWNkoGEItCNJmE4AAB7j1bwgTiNeoasjknPmgG4pTxJINBiPzHNQ1UF/6NsSsyGBUw9vFYXd/AnIxsylzZ0FhDNRnMGR/msOP9q1Mbd4jjyhdPlO4T9RZvNcksZmXuSMJVFwDKHRQEVJeKtu6fH1Ui6YhFIdpJw78zSAyqRrbEs5nNKyEqy8WkJoSYB/93I/XWNKhNvp2yjIQwK93UrimhtDVnoWfx2lWi5m2sXby8g+6hfFFYFKLXcP74NU7PyOXG6+eSPMK7OH4aubdl0xI0sZD3ney28RDApzt46anfUVGz25rm+Ct3sHZ0KTmjNgVMSWctKSVn0oe8165QBQcrSGYxK+dZ30zpvyztzn1Qs4b7Px3Jsu+3zdDZkjL5tuNicvc2cRgbo8bFYwuYWP+EN8tLqXjHypb45OFYMYZXFz9P7YpsVi75mEUPV3kClNpEdWGoamIjzX8WLpTmbdForPRT1o+J3nmFD/bPZKz/vaJBNuLH24gPtf3+D3kpKgFKYI4rAXfdeiqponJxFQscTs9EQvM21oYMEKgSSVdFYWLh9JCP/YRlszEJqLOyCRNGYvMbtyxwOL0zb25q65pIS00hx1XK9EhhEemk3n8Ade8bPHTHr60NkZen22YL84hO2ySCu+4TDqSOaT+h0BFNMBgbCA+gRiFE4PkqxH9x7fkTiT/2IS89+Ssq9FUICUEhEjE0EEKkb7aKGFKIRAwpRCKGFCIRQwqRiCGFSMSQQiRiSCESMaQQiRhSiEQMKUQihhQiEUMKkYghhUjEkEIkYkghEjGkEIkYUohEDA057v1y+AlOwIkYTrS+iunFZslA57nSBsY1NiQmBk6c8Hs7MZ431/paf4FBrBTj/8PAuLiGcAJiYqDts8H35rzvdmB8WEifMwArEfjCJCJdMQTawnOitboqTRJtA+caC/gzwqpEIl2nKW4RQwqRiCGFSMSQQiRiSCESMaQQiRhSiEQMKUQihhQiEUMKkYghhUjEkEIkYkghEjGkEIkYUohEDClEIoYUIhFDCpGIIYVIxJBCJGJIIRIxpBCJGFKIRAwpRCKGFCIRQwqRiCGFSMSQQiRiSCESMaQQiRj6/wGrygwsWArmGgAAAABJRU5ErkJggg==;" vertex="1" parent="1">
          <mxGeometry x="425" y="440" width="209" height="748" as="geometry" />
        </mxCell>
        <mxCell id="L4crU5eTOJmEewNLvefr-7" value="&lt;h2&gt;数据统计&lt;/h2&gt;" style="text;html=1;align=center;verticalAlign=middle;resizable=0;points=[];autosize=1;strokeColor=none;fillColor=none;" vertex="1" parent="1">
          <mxGeometry x="80" y="1010" width="100" height="60" as="geometry" />
        </mxCell>
        <mxCell id="L4crU5eTOJmEewNLvefr-8" value="&lt;h2&gt;营销管理&lt;/h2&gt;" style="text;html=1;align=center;verticalAlign=middle;resizable=0;points=[];autosize=1;strokeColor=none;fillColor=none;" vertex="1" parent="1">
          <mxGeometry x="80" y="930" width="100" height="60" as="geometry" />
        </mxCell>
        <mxCell id="L4crU5eTOJmEewNLvefr-9" value="&lt;h2&gt;用户管理&lt;/h2&gt;" style="text;html=1;align=center;verticalAlign=middle;resizable=0;points=[];autosize=1;strokeColor=none;fillColor=none;" vertex="1" parent="1">
          <mxGeometry x="80" y="784" width="100" height="60" as="geometry" />
        </mxCell>
      </root>
    </mxGraphModel>
  </diagram>
</mxfile>
